<svg xmlns="http://www.w3.org/2000/svg" viewBox="0 0 43.97 40"><defs><style>.cls-1{fill:#fff;}</style></defs><title>telegram</title><path class="cls-1" d="M46.14,6.55A3.08,3.08,0,0,0,43,6.31h0C41.71,6.83,6.73,21.83,5.3,22.44c-.25.09-2.52.94-2.28,2.82a3.4,3.4,0,0,0,2.24,2.48l8.9,3c.59,2,2.76,9.21,3.24,10.76.3,1,.79,2.23,1.65,2.49a2,2,0,0,0,2-.35l5.44-5,8.78,6.84.21.13a4.23,4.23,0,0,0,1.71.39,3.33,3.33,0,0,0,1.21-.23,3.74,3.74,0,0,0,1.9-1.94L46.83,9.75C47.23,7.93,46.67,7,46.14,6.55ZM22,32l-3,8L16,30,39,13Z" transform="translate(-3 -6)"/></svg>