<svg xmlns="http://www.w3.org/2000/svg" width="27" height="16" viewBox="0 0 27 16" fill="none">
    <path d="M26.8568 14.5392C26.8241 14.4705 26.7936 14.4136 26.7653 14.368C26.2969 13.5464 25.4017 12.5378 24.0803 11.3422L24.0524 11.3148L24.0384 11.3014L24.0243 11.2876H24.0101C23.4104 10.7308 23.0306 10.3565 22.8715 10.1648C22.5806 9.79972 22.5154 9.43016 22.6744 9.05571C22.7868 8.77279 23.2088 8.17532 23.9396 7.26247C24.324 6.77868 24.6285 6.39095 24.8533 6.09883C26.4747 3.99951 27.1777 2.65802 26.962 2.07383L26.8783 1.93731C26.822 1.85512 26.6767 1.77993 26.4427 1.71136C26.2081 1.64294 25.9083 1.63162 25.5427 1.67722L21.4942 1.70446C21.4286 1.68182 21.335 1.68393 21.213 1.71136C21.0911 1.73879 21.0302 1.75255 21.0302 1.75255L20.9597 1.78684L20.9038 1.82803C20.8569 1.85527 20.8053 1.90317 20.7491 1.97164C20.6931 2.03988 20.6462 2.11996 20.6088 2.21121C20.168 3.31558 19.6669 4.34237 19.1045 5.29152C18.7577 5.85749 18.4392 6.34798 18.1484 6.76329C17.8579 7.17846 17.6142 7.48434 17.4176 7.68041C17.2206 7.87668 17.0429 8.03391 16.8832 8.15269C16.7239 8.27151 16.6022 8.32171 16.518 8.30335C16.4335 8.28498 16.354 8.26676 16.2787 8.24854C16.1476 8.16635 16.0421 8.05458 15.9626 7.91312C15.8827 7.77166 15.829 7.59362 15.8009 7.37913C15.7729 7.1645 15.7563 6.97989 15.7516 6.82467C15.7472 6.66964 15.7493 6.45036 15.7588 6.16745C15.7685 5.88439 15.7729 5.69287 15.7729 5.59246C15.7729 5.24558 15.7798 4.86911 15.7938 4.46296C15.8079 4.05681 15.8194 3.73501 15.829 3.49794C15.8386 3.26063 15.843 3.00955 15.843 2.74486C15.843 2.48017 15.8265 2.27259 15.7938 2.12192C15.7615 1.97145 15.7119 1.82539 15.6465 1.68379C15.5808 1.54233 15.4846 1.43291 15.3584 1.35523C15.2319 1.27764 15.0746 1.21607 14.8874 1.17033C14.3907 1.06085 13.7581 1.00163 12.9895 0.992426C11.2464 0.974205 10.1264 1.08382 9.62968 1.32113C9.43288 1.4214 9.25479 1.5584 9.09555 1.73169C8.92681 1.93256 8.90328 2.04218 9.02509 2.06021C9.58749 2.14226 9.98562 2.33852 10.2199 2.64881L10.3044 2.81324C10.3701 2.93187 10.4357 3.1419 10.5013 3.44304C10.5668 3.74417 10.6091 4.07729 10.6277 4.4422C10.6745 5.10858 10.6745 5.67901 10.6277 6.15354C10.5808 6.62826 10.5365 6.99782 10.4942 7.26251C10.4519 7.52721 10.3887 7.74169 10.3044 7.90593C10.2199 8.07021 10.1638 8.17062 10.1356 8.20706C10.1075 8.24351 10.084 8.26647 10.0654 8.27549C9.94362 8.32095 9.81693 8.34411 9.68581 8.34411C9.5545 8.34411 9.39526 8.28014 9.20786 8.1523C9.02051 8.02446 8.82607 7.84886 8.62454 7.62522C8.42301 7.40153 8.19573 7.08893 7.9426 6.68738C7.68966 6.28584 7.42723 5.81126 7.15543 5.26366L6.93056 4.86652C6.78999 4.61104 6.59796 4.23903 6.35429 3.75084C6.11046 3.26245 5.89495 2.79003 5.7076 2.33368C5.63271 2.14201 5.5202 1.9961 5.37027 1.89569L5.29991 1.8545C5.25313 1.81805 5.17804 1.77936 5.07504 1.73812C4.97189 1.69693 4.86425 1.66739 4.75169 1.64922L0.89987 1.67645C0.506263 1.67645 0.239197 1.76329 0.0985741 1.93673L0.0422953 2.01878C0.0141805 2.06448 0 2.13746 0 2.23792C0 2.33833 0.0281148 2.46156 0.0843936 2.60748C0.646689 3.8945 1.25817 5.13572 1.91885 6.33134C2.57952 7.52697 3.15363 8.49007 3.64084 9.2198C4.12815 9.95005 4.62486 10.6393 5.13097 11.2871C5.63709 11.9351 5.9721 12.3505 6.13601 12.5329C6.30012 12.7157 6.42903 12.8524 6.52273 12.9436L6.87424 13.2721C7.09916 13.4912 7.42944 13.7536 7.86525 14.0593C8.30115 14.3652 8.78373 14.6663 9.31323 14.9632C9.84283 15.2596 10.4589 15.5014 11.1619 15.6885C11.8648 15.8758 12.5489 15.9509 13.2143 15.9146H14.831C15.1589 15.8871 15.4073 15.7867 15.5761 15.6134L15.6321 15.5447C15.6697 15.4903 15.7049 15.4056 15.7374 15.2918C15.7703 15.1777 15.7866 15.052 15.7866 14.9153C15.777 14.5229 15.8077 14.1693 15.8778 13.8544C15.9479 13.5397 16.0277 13.3023 16.1171 13.1425C16.2063 12.9828 16.3071 12.8481 16.4192 12.7389C16.5315 12.6294 16.6116 12.5631 16.6586 12.5402C16.7053 12.5173 16.7425 12.5017 16.7706 12.4923C16.9956 12.4194 17.2603 12.49 17.5651 12.7047C17.8698 12.9192 18.1555 13.184 18.4228 13.4988C18.6899 13.8138 19.0108 14.1673 19.3856 14.5597C19.7607 14.9522 20.0886 15.244 20.3696 15.4359L20.6507 15.6002C20.8384 15.7098 21.0821 15.8103 21.382 15.9015C21.6814 15.9927 21.9438 16.0155 22.169 15.9699L25.7677 15.9153C26.1236 15.9153 26.4006 15.8579 26.597 15.744C26.7939 15.6299 26.9108 15.5042 26.9485 15.3675C26.9862 15.2307 26.9882 15.0754 26.9557 14.9018C26.9223 14.7287 26.8895 14.6076 26.8568 14.5392Z" fill="white"/>
</svg>