<svg id="Слой_1" data-name="Слой 1" xmlns="http://www.w3.org/2000/svg" viewBox="0 0 62.05 62"><defs><style>.cls-1{fill:#fff;}</style></defs><title>whatsapp</title><path class="cls-1" d="M32,1A31,31,0,0,0,1,32,30.54,30.54,0,0,0,4.85,47L2.2,56.65A4.31,4.31,0,0,0,3.35,61a4.45,4.45,0,0,0,4.3,1.2l10.1-2.65A31,31,0,0,0,63.05,32a30.7,30.7,0,0,0-9-21.9A31.07,31.07,0,0,0,32,1Zm0,3A28,28,0,0,1,60,32,28,28,0,0,1,32,60a28.52,28.52,0,0,1-13.4-3.4,1.63,1.63,0,0,0-.7-.2,1.1,1.1,0,0,0-.4.05L6.85,59.25A1.52,1.52,0,0,1,5,57.4L7.8,47.1A1.53,1.53,0,0,0,7.65,46,28.1,28.1,0,0,1,32,4Zm0,4.5A23.5,23.5,0,0,0,11.65,43.75a6.16,6.16,0,0,1,.6,4.6L10.8,53.6l5.6-1.45a5.16,5.16,0,0,1,1.5-.2,5.65,5.65,0,0,1,2.85.75A24.34,24.34,0,0,0,32,55.5a23.5,23.5,0,1,0,0-47ZM21.55,18.35H23c.55,0,1.1,0,1.65,1.25.65,1.45,2.1,5.1,2.25,5.45a1.32,1.32,0,0,1,0,1.3,4.62,4.62,0,0,1-.75,1.25c-.35.45-.8.95-1.1,1.3a1.06,1.06,0,0,0-.3,1.5,22.18,22.18,0,0,0,4.1,5.1,19.49,19.49,0,0,0,5.95,3.65c.75.35,1.15.3,1.6-.2s1.85-2.15,2.35-2.9,1-.6,1.65-.35,4.3,2,5.05,2.4,1.25.55,1.4.85a6.32,6.32,0,0,1-.4,3.6c-.6,1.7-3.6,3.4-5,3.5s-2.6.6-8.85-1.85c-7.5-3-12.25-10.65-12.6-11.15s-3-4-3-7.65a8.15,8.15,0,0,1,2.6-6.15A2.62,2.62,0,0,1,21.55,18.35Z" transform="translate(-1 -1)"/></svg>