<svg width="367" height="110" viewBox="0 0 367 110" fill="none" xmlns="http://www.w3.org/2000/svg">
<rect width="367" height="110" rx="15" fill="#40C351"/>
<path d="M120.802 70V40.9091H126.952V52.9119H139.438V40.9091H145.575V70H139.438V57.983H126.952V70H120.802ZM155.66 70H149.069L159.112 40.9091H167.038L177.066 70H170.475L163.188 47.5568H162.961L155.66 70ZM155.248 58.5653H170.816V63.3665H155.248V58.5653ZM205.298 40.9091V70H199.218V45.9091H187.457V70H181.377V40.9091H205.298ZM211.153 40.9091H217.29V59.2045H217.531L230.102 40.9091H235.486V70H229.335V51.6903H229.122L216.48 70H211.153V40.9091ZM266.235 51.0938H260.013C259.9 50.2888 259.668 49.5739 259.317 48.9489C258.967 48.3144 258.517 47.7746 257.968 47.3295C257.419 46.8845 256.784 46.5436 256.065 46.3068C255.354 46.0701 254.583 45.9517 253.749 45.9517C252.244 45.9517 250.932 46.3258 249.815 47.0739C248.697 47.8125 247.831 48.892 247.215 50.3125C246.6 51.7235 246.292 53.4375 246.292 55.4545C246.292 57.5284 246.6 59.2708 247.215 60.6818C247.84 62.0928 248.711 63.1581 249.829 63.8778C250.946 64.5975 252.239 64.9574 253.707 64.9574C254.531 64.9574 255.293 64.8485 255.994 64.6307C256.704 64.4129 257.334 64.0956 257.883 63.679C258.432 63.2528 258.887 62.7367 259.246 62.1307C259.616 61.5246 259.871 60.8333 260.013 60.0568L266.235 60.0852C266.074 61.4205 265.672 62.7083 265.028 63.9489C264.393 65.1799 263.536 66.2831 262.457 67.2585C261.387 68.2244 260.108 68.9915 258.621 69.5597C257.144 70.1184 255.473 70.3977 253.607 70.3977C251.013 70.3977 248.692 69.8106 246.647 68.6364C244.611 67.4621 243.001 65.7623 241.817 63.5369C240.643 61.3116 240.056 58.6174 240.056 55.4545C240.056 52.2822 240.653 49.5833 241.846 47.358C243.039 45.1326 244.658 43.4375 246.704 42.2727C248.749 41.0985 251.05 40.5114 253.607 40.5114C255.293 40.5114 256.855 40.7481 258.295 41.2216C259.744 41.6951 261.027 42.3864 262.144 43.2955C263.262 44.1951 264.171 45.2983 264.871 46.6051C265.582 47.9119 266.036 49.4081 266.235 51.0938ZM275.113 70H268.522L278.565 40.9091H286.491L296.519 70H289.928L282.641 47.5568H282.414L275.113 70ZM274.701 58.5653H290.269V63.3665H274.701V58.5653ZM295.358 45.9801V40.9091H319.25V45.9801H310.344V70H304.264V45.9801H295.358ZM327.233 51.6619H334.165C336.475 51.6619 338.464 52.036 340.131 52.7841C341.807 53.5227 343.099 54.5691 344.009 55.9233C344.918 57.2775 345.367 58.8731 345.358 60.7102C345.367 62.5379 344.918 64.1525 344.009 65.554C343.099 66.946 341.807 68.035 340.131 68.821C338.464 69.607 336.475 70 334.165 70H323.298V40.9091H329.435V65.0568H334.165C335.273 65.0568 336.205 64.858 336.963 64.4602C337.721 64.053 338.294 63.518 338.682 62.8551C339.08 62.1828 339.274 61.4489 339.264 60.6534C339.274 59.4981 338.838 58.5227 337.957 57.7273C337.086 56.9223 335.822 56.5199 334.165 56.5199H327.233V51.6619Z" fill="white"/>
<path fill-rule="evenodd" clip-rule="evenodd" d="M19.0085 94.3461C18.742 94.3461 18.4836 94.2411 18.2918 94.0473C18.0395 93.7909 17.9406 93.4174 18.0355 93.0722L23.3632 73.6188C20.0603 67.752 18.3181 61.0899 18.3221 54.3268C18.3302 32.6405 35.9768 15 57.6611 15C68.1792 15.004 78.0613 19.1002 85.4886 26.5336C92.9159 33.9689 97.004 43.8491 97 54.3551C96.9919 76.0393 79.3433 93.6819 57.6611 93.6819C51.223 93.6799 44.8536 92.0911 39.2009 89.085L19.2649 94.3118C19.1801 94.336 19.0953 94.3461 19.0085 94.3461Z" fill="white"/>
<path fill-rule="evenodd" clip-rule="evenodd" d="M80.1952 31.8209C74.1791 25.8007 66.1825 22.4838 57.6711 22.4818C40.0992 22.4818 25.8079 36.767 25.7998 54.3268C25.7978 60.3449 27.4815 66.2036 30.6712 71.2769L31.4303 72.4821L28.2103 84.2337L40.2688 81.0723L41.4336 81.7627C46.3232 84.6658 51.9315 86.2001 57.6489 86.2021H57.661C75.2208 86.2021 89.5121 71.9148 89.5181 54.353C89.5201 45.8437 86.2113 37.841 80.1952 31.8209Z" fill="#40C351"/>
<path fill-rule="evenodd" clip-rule="evenodd" d="M48.0797 38.3074C47.363 36.7125 46.608 36.6802 45.9236 36.6519C45.3644 36.6277 44.7264 36.6297 44.0885 36.6297C43.4505 36.6297 42.4129 36.87 41.5347 37.8289C40.6565 38.7879 38.1814 41.1035 38.1814 45.8154C38.1814 50.5274 41.6134 55.0819 42.0919 55.7198C42.5703 56.3578 48.7177 66.3368 58.4525 70.1766C66.5419 73.3664 68.1893 72.7325 69.9457 72.573C71.7021 72.4135 75.6125 70.2574 76.41 68.0205C77.2074 65.7837 77.2074 63.8678 76.9692 63.4681C76.7289 63.0683 76.091 62.8301 75.1341 62.3496C74.1771 61.8692 69.4672 59.5536 68.589 59.2346C67.7108 58.9156 67.0729 58.7561 66.4329 59.7151C65.795 60.672 63.9598 62.8301 63.4006 63.4681C62.8414 64.108 62.2822 64.1888 61.3253 63.7083C60.3683 63.2278 57.2836 62.2184 53.6234 58.956C50.7769 56.4183 48.855 53.2831 48.2957 52.3241C47.7365 51.3672 48.2352 50.8484 48.7157 50.3699C49.1457 49.9399 49.6726 49.2515 50.1531 48.6923C50.6315 48.133 50.791 47.7333 51.11 47.0954C51.429 46.4554 51.2695 45.8962 51.0292 45.4177C50.793 44.9372 48.9317 40.2011 48.0797 38.3074Z" fill="white"/>
</svg>
